<?xml version="1.0" encoding="iso-8859-1"?>
<!-- Generator: Adobe Illustrator 18.0.0, SVG Export Plug-In . SVG Version: 6.00 Build 0)  -->
<!DOCTYPE svg PUBLIC "-//W3C//DTD SVG 1.1//EN" "http://www.w3.org/Graphics/SVG/1.1/DTD/svg11.dtd">
<svg version="1.1" id="Capa_1" xmlns="http://www.w3.org/2000/svg" xmlns:xlink="http://www.w3.org/1999/xlink" x="0px" y="0px" viewBox="0 0 477.778 477.778" style="enable-background:new 0 0 477.778 477.778;" xml:space="preserve">
	<g>
		<path d="M172.693,0c-22.574,0-41.906,13.368-50.88,32.544C112.847,13.368,93.515,0,70.94,0C39.85,0,14.647,36.51,14.647,67.592
		c0,67.607,107.166,125.494,107.166,125.494s107.174-57.887,107.174-125.494C228.986,36.51,203.784,0,172.693,0z" />
		<path d="M121.813,229.348c0,0-107.166,57.886-107.166,125.495c0,31.081,25.203,67.591,56.293,67.591
		c9.067,0,17.582-2.185,25.118-6.034c2.131-1.089,4.705-0.755,6.485,0.847c1.773,1.594,2.38,4.122,1.532,6.353l-14.915,38.96
		c-1.314,3.445-0.855,7.318,1.236,10.358c2.092,3.04,5.545,4.861,9.238,4.861h44.364c3.694,0,7.146-1.82,9.238-4.861
		c2.092-3.04,2.55-6.914,1.236-10.358l-14.915-38.96c-0.848-2.231-0.241-4.759,1.532-6.353c1.781-1.594,4.355-1.937,6.486-0.847
		c7.535,3.849,16.051,6.034,25.117,6.034c31.091,0,56.293-36.51,56.293-67.591C228.986,287.234,121.813,229.348,121.813,229.348z" />
		<path d="M408.183,312.515c-0.077,0-0.147,0.024-0.225,0.024c6.089-8.85,9.689-19.541,9.689-31.097
		c0-30.36-24.604-54.956-54.948-54.956c-30.36,0-54.964,24.596-54.964,54.956c0,11.556,3.601,22.247,9.689,31.097
		c-0.07,0-0.132-0.024-0.202-0.024c-30.366,0-54.97,24.614-54.97,54.964c0,30.36,24.604,54.956,54.97,54.956
		c6.781,0,13.252-1.268,19.224-3.553c2.129-0.809,4.533-0.296,6.143,1.314c1.61,1.61,2.123,4.02,1.306,6.143l-13.865,36.214
		c-1.314,3.453-0.855,7.326,1.237,10.366c2.091,3.04,5.544,4.861,9.237,4.861h44.365c3.693,0,7.146-1.82,9.239-4.861
		c2.091-3.04,2.558-6.914,1.236-10.358l-13.865-36.23c-0.817-2.123-0.304-4.533,1.306-6.143c1.61-1.61,4.013-2.123,6.144-1.306
		c5.98,2.285,12.457,3.553,19.253,3.553c30.344,0,54.948-24.596,54.948-54.956C463.131,337.128,438.527,312.515,408.183,312.515z
		 M362.693,336.646c-0.062-0.094-0.148-0.172-0.218-0.264c0.078,0,0.148,0.022,0.226,0.022c0.07,0,0.14-0.022,0.21-0.022
		C362.841,336.474,362.755,336.552,362.693,336.646z" />
		<path d="M358.376,205.475c1.097,1.236,2.668,1.943,4.316,1.943c1.648,0,3.22-0.707,4.316-1.943l86.03-97.065
		c1.943-2.193,1.935-5.498-0.024-7.675L366.984,4.79c-1.088-1.221-2.652-1.921-4.292-1.921c-1.64,0-3.204,0.7-4.292,1.921
		l-86.038,95.937c-1.959,2.185-1.967,5.49-0.022,7.683L358.376,205.475z" />
	</g>
	<g></g>
	<g></g>
	<g></g>
	<g></g>
	<g></g>
	<g></g>
	<g></g>
	<g></g>
	<g></g>
	<g></g>
	<g></g>
	<g></g>
	<g></g>
	<g></g>
	<g></g>
</svg>
